<?xml version="1.0" encoding="utf-8"?>
<!-- Generator: Adobe Illustrator 14.0.0, SVG Export Plug-In . SVG Version: 6.00 Build 43363)  -->
<!DOCTYPE svg PUBLIC "-//W3C//DTD SVG 1.1//EN" "http://www.w3.org/Graphics/SVG/1.1/DTD/svg11.dtd">
<svg version="1.1" id="Layer_1" xmlns="http://www.w3.org/2000/svg" xmlns:xlink="http://www.w3.org/1999/xlink" x="0px" y="0px"
	 width="449.844px" height="108.971px" viewBox="0 0 449.844 108.971" enable-background="new 0 0 449.844 108.971"
	 xml:space="preserve">
<g>
	<path fill-rule="evenodd" clip-rule="evenodd" d="M255.569,22.57c0,4.668-3.644,7.024-7.025,7.024h-0.776
		c-3.382,0-7.025-2.356-7.025-7.024v-1.05c0-4.668,3.644-7.025,7.025-7.025h0.776c3.382,0,7.025,2.356,7.025,7.025V22.57z
		 M111.319,69.436c3.962,0.509,5.963,3.846,5.963,6.959c0,3.382-2.356,7.025-7.025,7.025h-5.964c-2.465,0-4.688-1.373-5.945-3.363
		c-3.93,2.332-8.538,3.668-13.51,3.668c-14.014,0-25.88-11.701-25.88-25.883c0-14.542,11.333-26.776,26.179-26.776
		c14.156,0,25.963,11.319,26.18,25.491L111.319,69.436z M96.895,57.136c0-6.379-5.309-11.583-11.756-11.583
		c-6.597,0-11.756,5.438-11.756,12.1c0,6.32,5.334,11.585,11.583,11.585C91.683,69.237,96.895,63.851,96.895,57.136z
		 M202.245,45.397c-6.378,0-11.583,5.31-11.583,11.757c0,6.598,5.437,11.756,12.1,11.756c6.32,0,11.585-5.334,11.585-11.583
		C214.348,50.609,208.96,45.397,202.245,45.397z M228.834,69.32c3.965,0.508,5.964,3.845,5.964,6.96
		c0,3.382-2.356,7.025-7.024,7.025h-5.965c-2.506,0-4.766-1.421-6.012-3.47c-3.79,2.213-8.182,3.498-12.846,3.498
		c-14.542,0-26.776-11.333-26.776-26.179c0-14.286,11.524-26.182,25.88-26.182c4.596,0,8.935,1.121,12.728,3.123V20.441
		c0-4.668,3.644-6.328,7.025-6.328s7.025,1.659,7.025,6.328v36.184v1.48V69.32z M22.308,79.679L7.933,45.51h-0.9
		C2.359,45.51,0,41.863,0,38.477c0-3.385,2.359-7.033,7.033-7.033h5.571c2.981,0,5.521,1.934,6.493,4.331l11.012,28.857
		l11.034-28.904c0.998-2.233,3.436-4.284,6.473-4.284h5.571c4.674,0,7.033,3.647,7.033,7.033c0,3.386-2.359,7.033-7.033,7.033h-0.9
		L37.913,79.679c-0.993,2.306-2.773,4.298-7.786,4.298C25.088,83.977,23.304,81.991,22.308,79.679z M169.442,69.436
		c3.962,0.509,5.963,3.846,5.963,6.959c0,3.382-2.356,7.025-7.025,7.025h-5.963c-2.466,0-4.688-1.373-5.945-3.363
		c-3.931,2.332-8.538,3.668-13.509,3.668c-14.014,0-25.88-11.701-25.88-25.883c0-14.542,11.333-26.776,26.179-26.776
		c14.156,0,25.963,11.319,26.179,25.491L169.442,69.436z M155.018,57.136c0-6.379-5.309-11.583-11.757-11.583
		c-6.597,0-11.755,5.438-11.755,12.1c0,6.32,5.333,11.585,11.583,11.585C149.806,69.237,155.018,63.851,155.018,57.136z
		 M283.908,54.654l-0.034,22.881c0,4.668-3.397,5.885-7.842,5.885c-3.382,0-7.024-1.217-7.024-5.885
		c-0.032-0.453-0.049-30.858-0.049-30.858c-3.965-0.507-5.964-3.845-5.964-6.96c0-3.382,2.356-7.025,7.025-7.025h5.964
		c2.435,0,4.646,1.344,5.913,3.312c4.06-3.308,9.746-5.06,15.113-5.06c15.003,0,24.229,11.028,24.272,24.723l0.011,13.746
		c3.966,0.508,5.965,3.846,5.965,6.961c0,3.382-2.356,7.025-7.025,7.025h-0.776h-5.188h-0.777c-3.781,0-7.024-3.244-7.024-7.025
		v-1.884l0.007-19.634c0-6.218-4.067-11.005-11.402-11.005C289.214,43.851,283.908,48.727,283.908,54.654z M254.173,83.42h-5.187
		h-0.777c-3.781,0-7.025-3.244-7.025-7.025v-36.75c0-4.669,3.644-7.025,7.025-7.025h0.777c3.381,0,7.024,2.356,7.024,7.025v29.789
		c3.966,0.508,5.964,3.846,5.964,6.961c0,3.382-2.355,7.025-7.025,7.025H254.173z"/>
	<path fill="#00B4F0" d="M446.008,61.35l-38.016,12.834v0.804c0,4.173-3.256,6.278-6.278,6.278s-6.279-2.105-6.279-6.278v-4.974
		c0-2.662,1.727-4.93,3.867-5.797l33.273-9.832l-33.315-9.851c-1.994-0.892-3.825-3.067-3.825-5.779v-4.973
		c0-4.173,3.257-6.279,6.279-6.279s6.278,2.105,6.278,6.279v0.803l38.016,12.833c2.058,0.887,3.836,2.476,3.836,6.951
		C449.844,58.867,448.071,60.461,446.008,61.35z M360.69,90.888V66.78c0-10.97,8.437-11.814,12.656-12.175
		c-4.22-0.604-12.656-1.447-12.656-12.415v-24.11c0-5.062-2.29-7.232-5.665-7.232h-3.015c-3.135,0-5.424-1.687-5.424-5.424
		c0-3.495,2.289-5.424,5.424-5.424h8.921c10.485,0,15.671,4.942,15.671,16.032v24.591c0,7.352,3.132,8.077,6.146,8.077
		c3.979,0,5.787,2.891,5.787,5.785c0,2.893-1.809,5.787-5.787,5.787c-3.015,0-6.146,0.723-6.146,8.076v24.59
		c0,11.091-5.186,16.033-15.671,16.033h-8.921c-3.135,0-5.424-1.93-5.424-5.425c0-3.737,2.289-5.426,5.424-5.426h3.015
		C358.4,98.12,360.69,95.951,360.69,90.888z"/>
</g>
</svg>
